<?xml version="1.0" encoding="utf-8"?>
<!-- Generator: Adobe Illustrator 19.0.1, SVG Export Plug-In . SVG Version: 6.00 Build 0)  -->
<svg version="1.1" id="Layer_1" xmlns="http://www.w3.org/2000/svg" xmlns:xlink="http://www.w3.org/1999/xlink" x="0px" y="0px"
	 viewBox="-759 769.7 79.8 63.3" style="enable-background:new -759 769.7 79.8 63.3;" xml:space="preserve">
<style type="text/css">
	.st0{fill:#2E184A;}
	.st1{fill:#EE2350;}
</style>
<path class="st0" d="M-759,803.7v-4.8c0-1.3,0.6-2.2,2-2.8l1.1-0.5c2-0.8,3-3,3-6.6c0-3.6,0.6-6.6,1.7-9.1c1.1-2.5,2.7-4.4,4.8-5.9
	c3.9-2.8,8.9-4.3,14.8-4.3c0.4,0,0.8,0.1,1.1,0.4c0.3,0.3,0.4,0.6,0.4,1v10c0,0.4-0.1,0.7-0.4,1s-0.6,0.4-0.9,0.5
	c-2.7,0.3-4.5,1-5.6,2s-1.7,2.9-1.7,5.6c0,2.8-0.5,5.2-1.6,7.3c-1.1,2.1-2.4,3.3-4,3.8c1.6,0.4,2.9,1.8,4,4c1.1,2.2,1.6,4.6,1.6,7.3
	c0,2.7,0.5,4.5,1.7,5.5c1.1,1,3,1.6,5.6,2c0.3,0.1,0.6,0.2,0.9,0.5s0.4,0.6,0.4,1v10c0,0.4-0.2,0.8-0.4,1c-0.3,0.3-0.6,0.4-1.1,0.4
	c-5.9,0-10.9-1.4-14.8-4.3c-2-1.4-3.6-3.4-4.8-5.9c-1.1-2.5-1.7-5.5-1.7-9.1c0-3.6-1-5.8-3-6.6l-1.1-0.5
	C-758.4,806-759,805-759,803.7z"/>
<path class="st1" d="M-679.2,798.9v4.9c0,1.3-0.7,2.3-2,2.8l-1.1,0.5c-2,0.8-3,3-3,6.6c0,3.6-0.6,6.6-1.7,9.1
	c-1.1,2.5-2.7,4.4-4.8,5.9c-3.9,2.8-8.9,4.3-14.8,4.3c-0.4,0-0.8-0.2-1-0.4c-0.3-0.3-0.4-0.6-0.4-1.1v-9.9c0-0.4,0.1-0.7,0.4-1
	c0.3-0.3,0.6-0.4,0.9-0.5c2.7-0.3,4.5-1,5.6-2c1.1-1,1.7-2.8,1.7-5.5s0.5-5.1,1.6-7.3c1.1-2.2,2.4-3.5,4-4c-1.6-0.5-3-1.7-4-3.8
	c-1.1-2.1-1.6-4.5-1.6-7.3s-0.5-4.7-1.7-5.6c-1.1-1-3-1.6-5.6-2c-0.3,0-0.6-0.2-0.9-0.5c-0.3-0.3-0.4-0.6-0.4-1v-10
	c0-0.4,0.1-0.8,0.4-1c0.3-0.3,0.6-0.4,1-0.4c6,0,10.9,1.4,14.8,4.3c2,1.4,3.6,3.4,4.8,5.9c1.1,2.5,1.7,5.5,1.7,9.1
	c0,3.6,1,5.8,3,6.6l1.1,0.5C-679.9,796.7-679.2,797.6-679.2,798.9z"/>
<rect x="-730.1" y="790.3" width="22" height="22"/>
</svg>
