<svg version="1.1" id="Layer_1" xmlns="http://www.w3.org/2000/svg" xmlns:xlink="http://www.w3.org/1999/xlink" x="0px" y="0px"
	 viewBox="0 0 579.75 144" style="enable-background:new 0 0 579.75 144;" xml:space="preserve">
<style type="text/css">
	.st0{fill:#FFFFFF;}
</style>
<g>
	<g>
		<g>
			<g>
				<g>
					<polygon class="st0" points="0,21.3 22.21,21.3 22.21,102.21 63.34,102.21 63.34,122.7 0,122.7 					"/>
					<g>
						<path class="st0" d="M73.15,53.96h21.35v68.72H73.15V53.96z M83.83,19.8c6.84,0,12.39,5.55,12.39,12.38
							c0,6.84-5.55,12.38-12.39,12.38c-6.83,0-12.38-5.53-12.38-12.38C71.45,25.34,77,19.8,83.83,19.8"/>
					</g>
					<polygon class="st0" points="183.76,21.29 205.1,21.29 205.1,81.9 229.28,53.92 255.44,53.92 227.44,85.74 254.86,122.7 
						228.03,122.7 205.38,88.73 205.1,88.73 205.1,122.7 183.76,122.7 					"/>
					<path class="st0" d="M106.31,53.97h20.49v9.39h0.29c2.84-5.41,9.82-11.1,20.21-11.1c21.64,0,25.62,14.23,25.62,32.73v37.69
						h-21.35V89.26c0-7.97-0.15-18.22-11.11-18.22c-11.1,0-12.8,8.68-12.8,17.65v33.98h-21.35V53.97z"/>
					<path class="st0" d="M300.39,80.33c0.14-7.12-5.41-13.1-13.1-13.1c-9.39,0-14.52,6.4-15.08,13.1H300.39z M318.46,110.78
						c-6.83,8.68-18.07,13.67-29.18,13.67c-21.35,0-38.43-14.24-38.43-36.3c0-22.06,17.08-36.29,38.43-36.29
						c19.94,0,32.46,14.23,32.46,36.29v6.69H272.2c1.7,8.11,7.83,13.38,16.08,13.38c6.98,0,11.67-3.56,15.23-8.4L318.46,110.78z"/>
					<path class="st0" d="M366.2,70.57c-10.67,0-17.07,7.12-17.07,17.5c0,10.4,6.4,17.51,17.07,17.51
						c10.68,0,17.09-7.11,17.09-17.51C383.29,77.7,376.88,70.57,366.2,70.57 M402.94,122.67h-19.65v-9.11h-0.28
						c-3.28,4.98-11.53,10.82-21.21,10.82c-20.5,0-34.02-14.8-34.02-35.72c0-19.22,11.95-36.87,31.6-36.87
						c8.83,0,17.09,2.42,21.93,9.11h0.28v-39.6h21.36V122.67z"/>
				</g>
				<path class="st0" d="M557.63,0H434.92c-5.86,0-10.63,4.65-10.63,10.38v123.23c0,5.73,4.76,10.39,10.63,10.39h122.72
					c5.87,0,10.66-4.66,10.66-10.39V10.38C568.29,4.65,563.51,0,557.63,0z M467,122.71h-21.36V53.99H467V122.71z M456.32,44.59
					c-6.85,0-12.39-5.55-12.39-12.39c0-6.83,5.54-12.38,12.39-12.38c6.83,0,12.38,5.55,12.38,12.38
					C468.7,39.04,463.15,44.59,456.32,44.59z M547,122.71h-21.34V89.29c0-7.97-0.15-18.22-11.1-18.22
					c-11.11,0-12.82,8.68-12.82,17.64v34h-21.34V53.99h20.49v9.39h0.29c2.85-5.4,9.82-11.1,20.21-11.1
					C543,52.28,547,66.51,547,85.01V122.71z"/>
			</g>
		</g>
	</g>
	<g>
		<polygon class="st0" points="571.8,119.09 572.96,119.09 572.96,122.71 573.59,122.71 573.59,119.09 574.75,119.09 574.75,118.46 
			571.8,118.46 		"/>
		<polygon class="st0" points="578.85,118.46 577.61,121.58 576.38,118.46 575.48,118.46 575.48,122.71 576.11,122.71 
			576.11,119.48 577.41,122.71 577.82,122.71 579.12,119.48 579.12,122.71 579.75,122.71 579.75,118.46 		"/>
	</g>
</g>
</svg>
