<?xml version="1.0" encoding="utf-8"?>
<!-- Generator: Adobe Illustrator 19.0.1, SVG Export Plug-In . SVG Version: 6.00 Build 0)  -->
<svg version="1.1" id="Layer_1" xmlns="http://www.w3.org/2000/svg" xmlns:xlink="http://www.w3.org/1999/xlink" x="0px" y="0px"
	 viewBox="-574 769.8 449.8 63.2" style="enable-background:new -574 769.8 449.8 63.2;" xml:space="preserve">
<style type="text/css">

  :root {
    --speed-1: 640ms;
    --delay: 640ms;
    --speed-2: 1024ms;
  }

	.st0{fill:#2E184A;}
	.st1{fill:#EE2350;}
	.st2{fill:#B31E44;}
	.st3{fill:#ED2651;}

  .left-bracket {
    animation-name: l-bracket-in, l-bracket-shift;
    animation-duration: var(--speed-1), calc(var(--speed-2) / 1.5);
    animation-timing-function: ease;
    animation-delay: 0s, calc(var(--speed-1) + var(--delay));
    animation-fill-mode: forwards;
  }

  .right-bracket {
    animation-name: r-bracket-in, r-bracket-shift;
    animation-duration: var(--speed-1), calc(var(--speed-2) / 1.5);
    animation-timing-function: ease;
    animation-delay: 0s, calc(var(--speed-1) + var(--delay));
    animation-fill-mode: forwards;
  }

  @keyframes l-bracket-in {
    0% {
      transform: translateX(1%);
      fill: #2E184A;
      opacity: 0;
    }
    100% {
      transform: translateX(0%);
      fill: #2E184A;
      opacity: 1;
    }
  }

  @keyframes l-bracket-shift {
    0% {
      transform: translateX(0%);
      fill: #2E184A;
    }
    20% {
      transform: translateX(0.5%);
    }
    50% {
      transform: translateX(0.5%);
      fill: #2E184A;
    }
    100% {
      transform: translateX(-38%);
      fill: #000000;
    }
  }


  @keyframes r-bracket-in {
    0% {
      transform: translateX(-1%);
      fill: #EE2350;
      opacity: 0;
    }
    100% {
      transform: translateX(0%);
      fill: #EE2350;
      opacity: 1;
    }
  }

  @keyframes r-bracket-shift {
    0% {
      transform: translateX(0%);
      fill: #EE2350;
    }
    20% {
      transform: translateX(-0.5%);
    }
    50% {
      transform: translateX(-0.5%);
      fill: #EE2350;
    }
    100% {
      transform: translateX(44.3%);
      fill: #000000;
    }
  }

  .rect {
    transform-origin: -80.775% 1268.1%;
    animation-name: rectangle-in, rectangle-spin, rectangle-out;
    animation-duration: var(--speed-1), var(--speed-2), 280ms;
    animation-timing-function: ease, ease, ease-in-out;
    animation-delay: 0s, calc(var(--speed-1) + var(--delay)), calc(var(--speed-1) + var(--delay) + var(--speed-2) + 80ms);
    animation-fill-mode: forwards;
  }

  @keyframes rectangle-in {
    0% {
      transform: scale(1.2) rotate(180deg);
      opacity: 0;
    }
    100% {
      transform: scale(1) rotate(180deg);
      opacity: 1;
    }
  }

  @keyframes rectangle-spin {
    0% {
      transform: scale(1) rotate(180deg);
      opacity: 1;
    }
    18% {
      transform: scale(1) rotate(160deg);
    }
    36% {
      transform: scale(1) rotate(160deg);
      opacity: 1;
    }

    100% {
      transform: scale(.705) rotate(900deg);
      opacity: 1;
    }
  }
  @keyframes rectangle-out {
    0% {
      transform: scale(.705) rotate(900deg);
    }
    100% {
      transform: scale(.705) rotate(900deg);
      height: 0;
    }
  }

  .letters {
    opacity: 0;
    animation: letters-in;
    animation-duration: var(--speed-2);
    animation-delay: calc(var(--speed-1) + var(--delay));
    animation-fill-mode: forwards;
  }
  @keyframes letters-in {
    0% {
      opacity: 0;
    }
    42% {
      opacity: 0;
    }
    100% {
      opacity: 1;
    }
  }
</style>
<g class="letters" >
  <path class="st0" d="M-520.3,796.5v10.1c0,1.7,0.6,3.1,1.7,4c1.2,0.9,2.7,1.4,4.5,1.4c1.9,0,3.2-0.3,4.1-0.9
    c0.8-0.6,1.6-1.5,2.1-2.6c0.6-1.1,1.3-1.7,2.2-1.7h13.6c0.4,0,0.7,0.1,1,0.4c0.3,0.3,0.4,0.6,0.4,1c0,4.1-1.8,7.8-5.6,11.2
    c-1.8,1.7-4.3,3-7.4,4c-3.1,1-6.7,1.5-10.9,1.5c-4.2,0-8-0.7-11.4-2c-3.4-1.3-6.2-3.5-8.4-6.5c-2.1-3-3.2-6.7-3.2-11.1v-7.7
    c0-4.4,1.1-8.1,3.2-11.1c4-5.6,10.8-8.5,20.3-8.5c3.8,0,7.3,0.5,10.4,1.5c3.1,1,5.5,2.4,7.4,4c3.7,3.4,5.6,7.1,5.6,11.2
    c0,0.4-0.1,0.7-0.4,1c-0.3,0.3-0.6,0.4-1,0.4h-13.6c-0.9,0-1.7-0.6-2.2-1.7c-0.6-1.1-1.3-2-2.1-2.6c-0.8-0.6-2.2-0.9-4.1-0.9
    s-3.4,0.5-4.5,1.4C-519.7,793.5-520.3,794.8-520.3,796.5z"/>
  <path class="st0" d="M-447,800.1c2.9,2.2,4.4,5.5,4.4,9.9c0,4.4-2.1,8-6.4,10.8c-4.2,2.8-9.9,4.1-16.9,4.1c-7,0-12.5-1.3-16.4-4.1
    c-3.9-2.7-5.8-6-5.8-10c0-1,0.5-1.5,1.5-1.5h12.9c0.9,0,1.6,0.3,2.1,0.8c1.2,1.1,3.2,1.7,6.1,1.7c4,0,6-0.6,6-1.9
    c0-0.8-0.6-1.4-1.9-1.8c-1.3-0.5-3.8-0.9-7.5-1.3c-11.9-1.5-17.9-6.1-17.9-14c0-4.4,1.9-8,5.8-10.7c3.8-2.7,9-4.1,15.4-4.1
    c6.4,0,11.6,1.5,15.6,4.4c4,2.9,5.9,6,5.9,9.3c0,0.4-0.1,0.8-0.4,1.1c-0.3,0.3-0.6,0.4-1.1,0.4h-13.6c-0.8,0-1.4-0.2-2-0.8
    c-1-0.9-2.5-1.4-4.5-1.4c-2.8,0-4.2,0.6-4.2,1.8c0,0.6,0.6,1.1,1.6,1.5c1.1,0.4,3.3,0.7,6.6,1.1C-454.9,796.4-449.9,797.9-447,800.1
    z"/>
  <path class="st0" d="M-397.8,800.1c2.9,2.2,4.4,5.5,4.4,9.9c0,4.4-2.1,8-6.4,10.8s-9.9,4.1-16.9,4.1c-7,0-12.5-1.3-16.4-4.1
    c-3.9-2.7-5.8-6-5.8-10c0-1,0.5-1.5,1.5-1.5h13c0.9,0,1.6,0.3,2.1,0.8c1.2,1.1,3.2,1.7,6.1,1.7c4,0,6-0.6,6-1.9
    c0-0.8-0.6-1.4-1.9-1.8s-3.8-0.9-7.5-1.3c-11.9-1.5-17.9-6.1-17.9-14c0-4.4,1.9-8,5.8-10.7c3.8-2.7,9-4.1,15.4-4.1
    c6.4,0,11.6,1.5,15.6,4.4s5.9,6,5.9,9.3c0,0.4-0.1,0.8-0.4,1.1c-0.3,0.3-0.6,0.4-1.1,0.4H-410c-0.8,0-1.4-0.2-2-0.8
    c-1-0.9-2.5-1.4-4.5-1.4c-2.8,0-4.2,0.6-4.2,1.8c0,0.6,0.5,1.1,1.6,1.5c1.1,0.4,3.3,0.7,6.6,1.1
    C-405.6,796.4-400.7,797.9-397.8,800.1z"/>
<path class="st1" d="M-340.38,809.18c0.19,0.88,0.29,1.79,0.29,2.72c0,7.05-5.71,12.77-12.76,12.77h-17.76l15.03-15.49l0,0v-15.49
	h-15.49l-15.49,15.49v-28.54c0-1.35,1.09-2.43,2.43-2.43h31.26c7.05,0,12.76,5.71,12.76,12.76c0,0.94-0.1,1.85-0.29,2.72
	c-0.69,3.19-2.57,5.94-5.16,7.75C-342.96,803.25-341.07,805.99-340.38,809.18z"/>
<path class="st2" d="M-355.6,809.18l-15.03,15.49h-13.5c-1.34,0-2.43-1.09-2.43-2.43v-13.06l15.49-15.49v15.49H-355.6L-355.6,809.18
	z"/>  <path class="st3" d="M-312.9,813.6v9.2c0,0.7-0.4,1.1-1.1,1.1h-4.5c-3.1,0-5.6-0.4-7.4-1.3c-1.9-0.8-3.3-2.2-4.2-4.2
    c-0.9-1.8-1.3-4.4-1.3-7.5v-21.5h-1.8c-0.7,0-1.1-0.4-1.1-1.1v-9.1c0-0.7,0.4-1.1,1.1-1.1h14.5c0.7,0,1.1,0.4,1.1,1.1v30.4
    c0,2.5,1.3,2.8,2.2,2.8h1.2C-313.3,812.5-312.9,812.9-312.9,813.6z"/>
  <path class="st3" d="M-274.2,799.8c-0.5-1.6-1.3-3.1-2.2-4.3c-1-1.2-2.1-2.3-3.5-3.1c-2.8-1.7-7.1-2.5-11-2.5s-8.3,0.8-11,2.5
    c-2.8,1.7-4.7,4.2-5.8,7.4c-0.7,2-1,4.5-1,7.5c0,2.9,0.4,5.4,1,7.4c1,3.2,3,5.8,5.8,7.4c2.8,1.7,7.1,2.5,11,2.5
    c3.9,0,8.2-0.8,11-2.5c2.8-1.7,4.7-4.2,5.8-7.4c0.7-2,1-4.5,1-7.4C-273.1,804.3-273.5,801.8-274.2,799.8z M-287.1,811.1h-7.8v-7.8
    h7.8V811.1z"/>
  <path class="st3" d="M-254.5,802.7c0,0.4,0,1.5,0,4.5c0,3,0,4.2,0,4.6c0,1.1,2.5,1.6,4,1.6c0.8,0,1.3-0.1,1.7-0.3
    c0.1,0,0.1-0.1,0.1-0.1v-1.9c0-0.7,0.4-1.1,1.1-1.1h9.1c0.7,0,1.1,0.4,1.1,1.1v8.8c0,0.8-0.4,1.2-0.8,1.5c-3.5,2.1-8,3.2-13.3,3.2
    c-8.1,0-15.3-3.3-17.4-9.9c-0.6-1.8-0.9-4.3-0.9-7.5c0-3.1,0.3-5.6,0.9-7.3c1.1-3.3,3-5.8,5.6-7.5c2.6-1.7,7.9-2.5,11.8-2.5
    c5.2,0,9.6,1.1,13.2,3.3l0,0c0.4,0.2,0.6,0.4,0.7,0.6c0.1,0.2,0.1,0.5,0.1,0.9v8.4c0,0.7-0.4,1.1-1.1,1.1h-9.1
    c-0.7,0-1.1-0.4-1.1-1.1l-0.1-1.8c-0.4-0.2-0.9-0.3-1.7-0.3C-251.9,801.1-254.5,801.5-254.5,802.7z"/>
  <path class="st3" d="M-197.2,813.6v9.1c0,0.7-0.4,1.1-1.1,1.1h-11.4c-0.4,0-1-0.2-1.4-0.9l-4.7-10l-0.2,0.2v9.6
    c0,0.7-0.4,1.1-1.1,1.1h-14.5c-0.7,0-1.1-0.4-1.1-1.1v-9.1c0-0.7,0.4-1.1,1.1-1.1h1.8v-23h-1.8c-0.7,0-1.1-0.4-1.1-1.1v-9.1
    c0-0.7,0.4-1.1,1.1-1.1h14.5c0.7,0,1.1,0.4,1.1,1.1v18.4l6.4-6.3c0.5-0.4,1-0.7,1.7-0.7h8.1c0.7,0,1.1,0.4,1.1,1.1v9.1
    c0,0.7-0.4,1.1-1.1,1.1h-3.5c-0.1,0-0.2,0-0.4,0.2l-1.7,1.6l4.4,8.6c0.1,0.1,0.2,0.1,0.2,0.1h2.6
    C-197.6,812.5-197.2,812.9-197.2,813.6z"/>
  <path class="st3" d="M-161,812.6c0,4.1-1.5,7.2-4.6,9.2c-3,1.9-6.9,2.9-11.8,2.9c-5.1,0-9.7-0.7-13.9-2c-0.5-0.2-0.8-0.6-0.8-1.2v-8
    c0-0.7,0.4-1.1,1.1-1.1h9.6c0.7,0,1.1,0.4,1.1,1.1v1.1c0.8,0.2,1.8,0.2,3.1,0.2c1.2,0,2-0.1,2.6-0.4c0.4-0.2,0.6-0.5,0.6-0.9
    c0-0.3-0.1-0.6-0.4-0.7c-0.2-0.1-0.8-0.3-2.4-0.5l-3.7-0.4c-3.9-0.4-6.9-1.5-8.9-3.2c-2-1.8-3-4.3-3-7.6c0-3.7,1.4-6.5,4-8.4
    c2.6-1.9,6.5-2.9,11.4-2.9c2.4,0,4.8,0.2,7.1,0.6s4.4,0.9,6.2,1.6c0.7,0.3,0.8,0.8,0.8,1.1v7.4c0,0.7-0.4,1.1-1.1,1.1h-9.6
    c-0.7,0-1.1-0.4-1.1-1.1v-0.9c-0.6-0.2-1.3-0.2-2.3-0.2c-1.3,0-1.8,0.2-2,0.3c-0.3,0.2-0.4,0.4-0.4,0.7c0,0.4,0.1,0.6,0.3,0.6
    c0.1,0.1,0.5,0.3,1.9,0.5l3.6,0.4c4.5,0.5,7.8,1.6,9.7,3.3C-162,807.1-161,809.5-161,812.6z"/>
</g>
<g style="display: block;">
  <path class="left-bracket" d="M-403.1,803.8V799c0-1.3,0.6-2.2,2-2.8l1.1-0.5c2-0.8,3-3,3-6.6c0-3.6,0.6-6.6,1.7-9.1c1.1-2.5,2.7-4.4,4.8-5.9
    c3.9-2.8,8.9-4.3,14.8-4.3c0.4,0,0.8,0.1,1.1,0.4c0.3,0.3,0.4,0.6,0.4,1v10c0,0.4-0.1,0.7-0.4,1c-0.3,0.3-0.6,0.4-0.9,0.5
    c-2.7,0.3-4.5,1-5.6,2c-1.1,1-1.7,2.9-1.7,5.6c0,2.8-0.5,5.2-1.6,7.3c-1.1,2.1-2.4,3.3-4,3.8c1.6,0.4,2.9,1.8,4,4
    c1.1,2.2,1.6,4.6,1.6,7.3c0,2.7,0.5,4.5,1.7,5.5c1.1,1,3,1.6,5.6,2c0.3,0.1,0.6,0.2,0.9,0.5s0.4,0.6,0.4,1v10c0,0.4-0.2,0.8-0.4,1
    c-0.3,0.3-0.6,0.4-1.1,0.4c-5.9,0-10.9-1.4-14.8-4.3c-2-1.4-3.6-3.4-4.8-5.9c-1.1-2.5-1.7-5.5-1.7-9.1c0-3.6-1-5.8-3-6.6l-1.1-0.5
    C-402.5,806.1-403.1,805.1-403.1,803.8z"/>
  <path class="right-bracket" d="M-323.5,799v4.9c0,1.3-0.7,2.3-2,2.8l-1.1,0.5c-2,0.8-3,3-3,6.6c0,3.6-0.6,6.6-1.7,9.1
    c-1.1,2.5-2.7,4.4-4.8,5.9c-3.9,2.8-8.9,4.3-14.8,4.3c-0.4,0-0.8-0.2-1-0.4c-0.3-0.3-0.4-0.6-0.4-1.1v-9.9c0-0.4,0.1-0.7,0.4-1
    c0.3-0.3,0.6-0.4,0.9-0.5c2.7-0.3,4.5-1,5.6-2c1.1-1,1.7-2.8,1.7-5.5c0-2.7,0.5-5.1,1.6-7.3s2.4-3.5,4-4c-1.6-0.5-3-1.7-4-3.8
    c-1.1-2.1-1.6-4.5-1.6-7.3s-0.5-4.7-1.7-5.6c-1.1-1-3-1.6-5.6-2c-0.3,0-0.6-0.2-0.9-0.5c-0.3-0.3-0.4-0.6-0.4-1v-10
    c0-0.4,0.1-0.8,0.4-1c0.3-0.3,0.6-0.4,1-0.4c6,0,10.9,1.4,14.8,4.3c2,1.4,3.6,3.4,4.8,5.9c1.1,2.5,1.7,5.5,1.7,9.1
    c0,3.6,1,5.8,3,6.6l1.1,0.5C-324.2,796.8-323.5,797.7-323.5,799z"/>
  <rect x="-374.3" y="790.4" width="22" height="22" class="rect"/>
</g>
</svg>
