<svg version="1.1" id="Layer_1" xmlns="http://www.w3.org/2000/svg" xmlns:xlink="http://www.w3.org/1999/xlink" x="0px" y="0px" viewBox="0 0 449.78 63.19" style="enable-background:new 0 0 449.78 63.19;" xml:space="preserve">
  <path style="fill:#2E184A;" d="M53.69,26.7v10.09c0,1.72,0.58,3.05,1.74,3.97c1.16,0.93,2.67,1.39,4.55,1.39
    c1.87,0,3.23-0.29,4.07-0.88c0.84-0.59,1.55-1.45,2.12-2.59c0.57-1.14,1.32-1.7,2.24-1.7h13.64c0.38,0,0.7,0.14,0.98,0.43
    c0.27,0.28,0.41,0.62,0.41,1.02c0,4.07-1.85,7.79-5.56,11.16c-1.85,1.66-4.32,3.01-7.39,4.04c-3.07,1.03-6.69,1.54-10.86,1.54
    s-7.97-0.66-11.4-1.98c-3.43-1.32-6.22-3.49-8.37-6.5c-2.15-3.01-3.22-6.71-3.22-11.09v-7.68c0-4.38,1.07-8.09,3.22-11.12
    c4.04-5.64,10.8-8.45,20.27-8.45c3.83,0,7.28,0.51,10.36,1.54c3.07,1.03,5.54,2.37,7.39,4.04c3.7,3.37,5.56,7.09,5.56,11.16
    c0,0.39-0.14,0.73-0.41,1.02c-0.27,0.28-0.6,0.43-0.98,0.43H68.41c-0.93,0-1.67-0.57-2.24-1.7c-0.57-1.13-1.27-2-2.12-2.59
    c-0.84-0.59-2.2-0.88-4.07-0.88c-1.87,0-3.39,0.46-4.55,1.39C54.27,23.66,53.69,24.98,53.69,26.7z"/>
  <path style="fill:#2E184A;" d="M126.98,30.33c2.93,2.21,4.39,5.53,4.39,9.95c0,4.42-2.13,8.01-6.38,10.76
    c-4.25,2.75-9.89,4.12-16.93,4.12c-7.03,0-12.5-1.35-16.39-4.06c-3.89-2.71-5.84-6.05-5.84-10.01c0-0.97,0.48-1.45,1.45-1.45
    h12.95c0.88,0,1.6,0.27,2.15,0.82c1.18,1.14,3.22,1.7,6.13,1.7c4,0,6-0.62,6-1.87c0-0.77-0.63-1.39-1.89-1.84
    c-1.26-0.45-3.77-0.89-7.52-1.32c-11.92-1.46-17.87-6.12-17.87-13.98c0-4.42,1.92-8,5.75-10.72c3.83-2.73,8.96-4.09,15.38-4.09
    c6.42,0,11.61,1.47,15.57,4.4c3.96,2.93,5.94,6.03,5.94,9.3c0,0.44-0.14,0.79-0.41,1.06c-0.27,0.26-0.64,0.4-1.11,0.4h-13.58
    c-0.76,0-1.41-0.25-1.96-0.76c-1.01-0.92-2.53-1.39-4.55-1.39c-2.82,0-4.23,0.6-4.23,1.8c0,0.64,0.55,1.15,1.64,1.51
    c1.09,0.36,3.28,0.74,6.57,1.13C119.14,26.6,124.06,28.12,126.98,30.33z"/>
  <path style="fill:#2E184A;" d="M176.25,30.33c2.93,2.21,4.39,5.53,4.39,9.95c0,4.42-2.13,8.01-6.38,10.76
    c-4.25,2.75-9.89,4.12-16.93,4.12c-7.03,0-12.5-1.35-16.39-4.06c-3.89-2.71-5.84-6.05-5.84-10.01c0-0.97,0.48-1.45,1.45-1.45
    h12.95c0.88,0,1.6,0.27,2.15,0.82c1.18,1.14,3.22,1.7,6.13,1.7c4,0,6-0.62,6-1.87c0-0.77-0.63-1.39-1.89-1.84
    c-1.26-0.45-3.77-0.89-7.52-1.32c-11.92-1.46-17.87-6.12-17.87-13.98c0-4.42,1.92-8,5.75-10.72c3.83-2.73,8.96-4.09,15.38-4.09
    c6.42,0,11.61,1.47,15.57,4.4c3.96,2.93,5.94,6.03,5.94,9.3c0,0.44-0.14,0.79-0.41,1.06c-0.27,0.26-0.64,0.4-1.11,0.4h-13.58
    c-0.76,0-1.41-0.25-1.96-0.76c-1.01-0.92-2.53-1.39-4.55-1.39c-2.82,0-4.23,0.6-4.23,1.8c0,0.64,0.55,1.15,1.64,1.51
    c1.09,0.36,3.28,0.74,6.57,1.13C168.4,26.6,173.32,28.12,176.25,30.33z"/>
  <path d="M0,34.03v-4.87c0-1.31,0.65-2.25,1.96-2.84l1.15-0.47c1.98-0.81,2.98-3.01,2.98-6.6c0-3.59,0.57-6.62,1.73-9.1
    c1.15-2.48,2.74-4.44,4.77-5.89C16.51,1.42,21.45,0,27.4,0c0.41,0,0.76,0.15,1.05,0.44c0.29,0.29,0.44,0.64,0.44,1.05v9.95
    c0,0.41-0.14,0.74-0.41,1.02c-0.27,0.27-0.56,0.43-0.88,0.47c-2.66,0.32-4.54,0.97-5.65,1.96c-1.11,0.99-1.66,2.88-1.66,5.65
    s-0.53,5.2-1.59,7.27c-1.06,2.08-2.4,3.34-4.02,3.79c1.58,0.45,2.91,1.77,3.99,3.96c1.08,2.19,1.62,4.61,1.62,7.27
    c0,2.66,0.55,4.49,1.66,5.48c1.1,0.99,2.99,1.65,5.65,1.96c0.31,0.05,0.61,0.2,0.88,0.47c0.27,0.27,0.41,0.61,0.41,1.01v9.95
    c0,0.41-0.15,0.75-0.44,1.05c-0.29,0.29-0.64,0.44-1.05,0.44c-5.95,0-10.89-1.42-14.82-4.26c-2.03-1.44-3.62-3.41-4.77-5.89
    c-1.15-2.48-1.73-5.51-1.73-9.1c0-3.59-0.99-5.78-2.98-6.6l-1.15-0.47C0.65,36.29,0,35.34,0,34.03z"/>
  <path d="M449.78,29.19v4.87c0,1.31-0.66,2.26-1.96,2.84l-1.15,0.47c-1.98,0.81-2.98,3.01-2.98,6.6s-0.57,6.62-1.73,9.1
    c-1.15,2.48-2.74,4.44-4.77,5.89c-3.92,2.84-8.86,4.26-14.82,4.26c-0.41,0-0.76-0.15-1.05-0.44c-0.29-0.29-0.44-0.64-0.44-1.05
    v-9.95c0-0.41,0.14-0.74,0.41-1.01c0.27-0.27,0.56-0.43,0.88-0.47c2.66-0.31,4.54-0.97,5.65-1.96c1.11-0.99,1.66-2.82,1.66-5.48
    c0-2.66,0.54-5.09,1.62-7.27c1.08-2.19,2.41-3.51,3.99-3.96c-1.62-0.45-2.97-1.71-4.02-3.79c-1.06-2.07-1.59-4.5-1.59-7.27
    s-0.55-4.66-1.66-5.65c-1.11-0.99-2.99-1.65-5.65-1.96c-0.32-0.05-0.61-0.2-0.88-0.47c-0.27-0.27-0.41-0.61-0.41-1.02V1.52
    c0-0.41,0.15-0.75,0.44-1.05c0.29-0.29,0.64-0.44,1.05-0.44c5.95,0,10.89,1.42,14.82,4.26c2.03,1.44,3.62,3.41,4.77,5.89
    c1.15,2.48,1.73,5.51,1.73,9.1c0,3.59,0.99,5.78,2.98,6.6l1.15,0.47C449.13,26.94,449.78,27.89,449.78,29.19z"/>
  <path style="fill:#EE2350;" d="M233.62,39.37c0.19,0.88,0.29,1.79,0.29,2.72c0,7.05-5.71,12.77-12.76,12.77h-17.76l15.03-15.49
    l0,0V23.88h-15.49l-15.49,15.49V10.83c0-1.35,1.09-2.43,2.43-2.43h31.26c7.05,0,12.76,5.71,12.76,12.76
    c0,0.94-0.1,1.85-0.29,2.72c-0.69,3.19-2.57,5.94-5.16,7.75C231.04,33.44,232.93,36.18,233.62,39.37z"/>
  <path style="fill:#B31E44;" d="M218.42,39.37l-15.03,15.49h-13.5c-1.34,0-2.43-1.09-2.43-2.43V39.37l15.49-15.49v15.49H218.42
    L218.42,39.37z"/>
  <path style="fill:#ED2651;" d="M261.12,43.81V53c0,0.71-0.44,1.14-1.14,1.14h-4.47c-3.08,0-5.58-0.42-7.43-1.26
    c-1.9-0.85-3.3-2.25-4.18-4.15c-0.85-1.85-1.29-4.37-1.29-7.5V19.68h-1.76c-0.7,0-1.13-0.43-1.13-1.13V9.47
    c0-0.7,0.43-1.13,1.13-1.13h14.53c0.71,0,1.14,0.43,1.14,1.13v30.39c0,2.52,1.27,2.81,2.22,2.81h1.25
    C260.67,42.66,261.12,43.1,261.12,43.81z"/>
  <path style="fill:#ED2651;" d="M299.84,29.98c-0.52-1.63-1.27-3.07-2.24-4.31c-0.96-1.24-2.13-2.29-3.53-3.13
    c-2.76-1.66-7.13-2.5-11.01-2.5s-8.26,0.84-11.01,2.5c-2.8,1.68-4.73,4.18-5.78,7.44c-0.66,2.01-1.01,4.51-1.01,7.45
    c0,2.92,0.35,5.44,1.01,7.44c1.05,3.25,2.98,5.76,5.78,7.44c2.75,1.66,7.12,2.5,11.01,2.5c3.88,0,8.25-0.84,11.01-2.5
    c2.79-1.68,4.72-4.19,5.76-7.44c0.68-2,1.02-4.52,1.02-7.44C300.85,34.49,300.51,31.98,299.84,29.98z M286.93,41.3h-7.75v-7.75
    h7.75V41.3z"/>
  <path style="fill:#ED2651;" d="M319.53,32.89c0,0.43-0.01,1.55-0.01,4.53c0,2.97,0.02,4.18,0.02,4.61
    c0,1.13,2.53,1.55,3.98,1.55c0.76,0,1.32-0.1,1.69-0.28c0.07-0.04,0.07-0.08,0.07-0.1V41.3c0-0.7,0.43-1.13,1.14-1.13h9.14
    c0.7,0,1.13,0.43,1.13,1.13v8.82c0,0.82-0.4,1.25-0.75,1.46c-3.53,2.14-8,3.23-13.28,3.23c-8.09,0-15.27-3.33-17.39-9.87
    c-0.59-1.75-0.88-4.28-0.88-7.51c0-3.11,0.3-5.57,0.88-7.33c1.08-3.29,2.96-5.82,5.58-7.52c2.62-1.68,7.91-2.54,11.8-2.54
    c5.19,0,9.64,1.11,13.21,3.3l0.01,0.01c0.35,0.22,0.56,0.43,0.66,0.64c0.1,0.21,0.14,0.48,0.14,0.87v8.42
    c0,0.7-0.43,1.13-1.13,1.13h-9.14c-0.71,0-1.14-0.43-1.14-1.13l-0.07-1.75c-0.36-0.18-0.93-0.28-1.69-0.28
    C322.07,31.26,319.53,31.67,319.53,32.89z"/>
  <path style="fill:#ED2651;" d="M376.79,43.81v9.07c0,0.7-0.43,1.13-1.14,1.13h-11.44c-0.43,0-1.04-0.15-1.41-0.92l-4.67-9.97
    l-0.21,0.17v9.58c0,0.7-0.43,1.13-1.13,1.13h-14.54c-0.7,0-1.13-0.43-1.13-1.13v-9.07c0-0.71,0.43-1.14,1.13-1.14H344V19.68
    h-1.76c-0.7,0-1.13-0.43-1.13-1.13V9.47c0-0.7,0.43-1.13,1.13-1.13h14.54c0.7,0,1.13,0.43,1.13,1.13v18.38l6.35-6.35
    c0.45-0.44,1-0.66,1.66-0.66h8.09c0.7,0,1.14,0.43,1.14,1.13v9.08c0,0.7-0.44,1.13-1.14,1.13h-3.48c-0.12,0-0.23,0.05-0.36,0.16
    l-1.74,1.57l4.43,8.61c0.1,0.13,0.18,0.13,0.23,0.13h2.56C376.36,42.66,376.79,43.1,376.79,43.81z"/>
  <path style="fill:#ED2651;" d="M412.97,42.75c0,4.1-1.53,7.17-4.57,9.15c-2.95,1.93-6.94,2.91-11.84,2.91
    c-5.06,0-9.74-0.67-13.89-2c-0.53-0.23-0.8-0.64-0.8-1.18V43.6c0-0.7,0.44-1.14,1.14-1.14h9.6c0.7,0,1.13,0.44,1.13,1.14v1.12
    c0.78,0.16,1.8,0.24,3.08,0.24c1.19,0,2.05-0.12,2.56-0.35c0.39-0.18,0.58-0.45,0.58-0.87c0-0.35-0.12-0.59-0.38-0.74
    c-0.2-0.12-0.79-0.34-2.41-0.5l-3.68-0.39c-3.94-0.4-6.94-1.48-8.88-3.2c-1.99-1.76-2.99-4.31-2.99-7.6
    c0-3.65,1.36-6.48,4.05-8.41c2.64-1.9,6.46-2.86,11.36-2.86c2.38,0,4.77,0.19,7.12,0.57c2.35,0.38,4.42,0.93,6.16,1.64
    c0.71,0.27,0.82,0.81,0.82,1.1v7.43c0,0.7-0.44,1.14-1.14,1.14h-9.6c-0.7,0-1.14-0.44-1.14-1.14v-0.92
    c-0.58-0.16-1.34-0.24-2.34-0.24c-1.3,0-1.79,0.19-1.98,0.31c-0.26,0.17-0.37,0.4-0.37,0.72c0,0.38,0.15,0.56,0.28,0.64
    c0.11,0.09,0.5,0.3,1.93,0.46l3.62,0.39c4.55,0.5,7.82,1.62,9.71,3.35C411.99,37.25,412.97,39.69,412.97,42.75z"/>
</svg>
