<svg xmlns="http://www.w3.org/2000/svg" xmlns:xlink="http://www.w3.org/1999/xlink" x="0px" y="0px" viewBox="0 0 400 400" style="enable-background:new 0 0 400 400;" xml:space="preserve">
<path style="opacity:0.65;" d="M64.55,43.58l0.7-1.54c0.19-0.41,0.53-0.62,1.02-0.62l0.43,0.01c0.74,0.03,1.37-0.52,1.88-1.66
  c0.51-1.13,1.13-2.01,1.84-2.62c0.72-0.62,1.5-1.01,2.34-1.18c1.64-0.34,3.4-0.08,5.28,0.77c0.13,0.06,0.22,0.15,0.27,0.29
  c0.05,0.13,0.05,0.27-0.01,0.39l-1.42,3.14c-0.06,0.13-0.15,0.22-0.27,0.26c-0.12,0.05-0.24,0.05-0.35,0.02
  c-0.88-0.28-1.57-0.34-2.06-0.19c-0.49,0.16-0.93,0.67-1.33,1.55c-0.4,0.87-0.91,1.56-1.54,2.07c-0.63,0.5-1.23,0.71-1.81,0.62
  c0.43,0.37,0.66,0.97,0.69,1.82c0.03,0.84-0.15,1.69-0.53,2.53c-0.38,0.84-0.47,1.49-0.26,1.97c0.21,0.47,0.71,0.95,1.5,1.42
  c0.09,0.06,0.16,0.15,0.21,0.28c0.05,0.12,0.04,0.25-0.02,0.38l-1.42,3.14c-0.06,0.13-0.15,0.22-0.29,0.27
  c-0.13,0.05-0.27,0.05-0.39-0.01c-1.88-0.85-3.23-2-4.06-3.46c-0.43-0.75-0.66-1.59-0.66-2.54c-0.01-0.95,0.24-1.99,0.75-3.12
  c0.51-1.13,0.51-1.97,0-2.51l-0.3-0.31C64.43,44.38,64.36,43.99,64.55,43.58z"/>
<rect x="163.65" y="89.45" style="opacity:0.75;fill:none;stroke:#2E184A;stroke-width:5;stroke-miterlimit:10;" width="10" height="10"/>
<circle style="opacity:0.75;fill:none;stroke:#EC2952;stroke-width:5;stroke-miterlimit:10;" cx="32.09" cy="89.45" r="5"/>
<path style="opacity:0.65;" d="M208.95,41.04l-1.54-0.7c-0.41-0.19-0.62-0.53-0.62-1.02l0.01-0.43c0.03-0.74-0.52-1.37-1.66-1.88
  c-1.13-0.51-2.01-1.13-2.62-1.84c-0.62-0.72-1.01-1.5-1.18-2.34c-0.34-1.64-0.08-3.4,0.77-5.28c0.06-0.13,0.15-0.22,0.29-0.27
  c0.13-0.05,0.27-0.05,0.39,0.01l3.14,1.42c0.13,0.06,0.22,0.15,0.26,0.27c0.05,0.12,0.05,0.24,0.02,0.35
  c-0.28,0.88-0.34,1.57-0.19,2.06c0.16,0.49,0.67,0.93,1.55,1.33s1.56,0.91,2.07,1.54c0.5,0.63,0.71,1.23,0.62,1.81
  c0.37-0.43,0.97-0.66,1.82-0.69c0.84-0.03,1.69,0.15,2.53,0.53c0.84,0.38,1.49,0.47,1.97,0.26c0.47-0.21,0.95-0.71,1.42-1.5
  c0.06-0.09,0.15-0.16,0.28-0.21c0.12-0.05,0.25-0.04,0.38,0.02l3.14,1.42c0.13,0.06,0.22,0.15,0.27,0.29
  c0.05,0.13,0.05,0.27-0.01,0.39c-0.85,1.88-2,3.23-3.46,4.06c-0.75,0.43-1.59,0.66-2.54,0.66c-0.95,0.01-1.99-0.24-3.12-0.75
  c-1.13-0.51-1.97-0.51-2.51,0l-0.31,0.3C209.76,41.15,209.37,41.22,208.95,41.04z"/>
<rect x="58.67" y="169.56" style="opacity:0.75;fill:none;stroke:#2E184A;stroke-width:5;stroke-miterlimit:10;" width="10" height="10"/>
<circle style="opacity:0.75;fill:none;stroke:#EC2952;stroke-width:5;stroke-miterlimit:10;" cx="198.65" cy="162.51" r="5"/>
<path style="opacity:0.65;" d="M332.43,94.8l1.5-0.76c0.4-0.2,0.8-0.15,1.18,0.16l0.33,0.28c0.56,0.48,1.4,0.45,2.5-0.12
  c1.11-0.56,2.13-0.86,3.08-0.89c0.95-0.03,1.8,0.15,2.56,0.55c1.49,0.77,2.7,2.07,3.64,3.9c0.06,0.13,0.07,0.26,0.03,0.39
  c-0.04,0.14-0.13,0.24-0.25,0.3l-3.07,1.56c-0.13,0.06-0.25,0.07-0.38,0.03c-0.13-0.04-0.22-0.11-0.28-0.2
  c-0.51-0.77-1.01-1.25-1.49-1.44c-0.48-0.19-1.15-0.06-2,0.37c-0.86,0.43-1.69,0.65-2.49,0.65c-0.81,0-1.41-0.22-1.8-0.65
  c0.11,0.56-0.09,1.18-0.6,1.85c-0.51,0.68-1.17,1.22-1.99,1.64c-0.82,0.42-1.3,0.87-1.43,1.37c-0.13,0.5-0.04,1.18,0.28,2.05
  c0.04,0.1,0.03,0.22-0.01,0.35c-0.04,0.13-0.12,0.22-0.25,0.28l-3.07,1.56c-0.13,0.06-0.26,0.07-0.39,0.03
  c-0.14-0.04-0.24-0.13-0.3-0.25c-0.93-1.84-1.27-3.58-1.01-5.24c0.13-0.85,0.48-1.65,1.07-2.39c0.59-0.74,1.43-1.4,2.54-1.96
  c1.11-0.56,1.63-1.21,1.57-1.95l-0.03-0.43C331.84,95.35,332.03,95,332.43,94.8z"/>
<circle style="opacity:0.75;fill:none;stroke:#EC2952;stroke-width:5;stroke-miterlimit:10;" cx="318.09" cy="53.45" r="5"/>
<rect x="294.67" y="143.56" style="opacity:0.75;fill:none;stroke:#2E184A;stroke-width:5;stroke-miterlimit:10;" width="10" height="10"/>
<circle style="opacity:0.75;fill:none;stroke:#EC2952;stroke-width:5;stroke-miterlimit:10;" cx="374.65" cy="186.51" r="5"/>
<path style="opacity:0.65;" d="M169.85,313.41l0.7-1.54c0.19-0.41,0.53-0.62,1.02-0.62l0.43,0.01c0.74,0.03,1.37-0.52,1.88-1.66
  c0.51-1.13,1.13-2.01,1.84-2.62c0.72-0.62,1.5-1.01,2.34-1.18c1.64-0.34,3.4-0.08,5.28,0.77c0.13,0.06,0.22,0.15,0.27,0.29
  c0.05,0.13,0.05,0.27-0.01,0.39l-1.42,3.14c-0.06,0.13-0.15,0.22-0.27,0.26c-0.12,0.05-0.24,0.05-0.35,0.02
  c-0.88-0.28-1.57-0.34-2.06-0.19c-0.49,0.16-0.93,0.67-1.33,1.55c-0.4,0.87-0.91,1.56-1.54,2.07c-0.63,0.5-1.23,0.71-1.81,0.62
  c0.43,0.37,0.66,0.97,0.69,1.82c0.03,0.84-0.15,1.69-0.53,2.53c-0.38,0.84-0.47,1.49-0.26,1.97c0.21,0.47,0.71,0.95,1.5,1.42
  c0.09,0.06,0.16,0.15,0.21,0.28c0.05,0.12,0.04,0.25-0.02,0.38l-1.42,3.14c-0.06,0.13-0.15,0.22-0.29,0.27
  c-0.13,0.05-0.27,0.05-0.39-0.01c-1.88-0.85-3.23-2-4.06-3.46c-0.43-0.75-0.66-1.59-0.66-2.54c-0.01-0.95,0.24-1.99,0.75-3.12
  c0.51-1.13,0.51-1.97,0-2.51l-0.3-0.31C169.73,314.21,169.66,313.82,169.85,313.41z"/>
<rect x="238.67" y="281.75" style="opacity:0.75;fill:none;stroke:#2E184A;stroke-width:5;stroke-miterlimit:10;" width="10" height="10"/>
<circle style="opacity:0.75;fill:none;stroke:#EC2952;stroke-width:5;stroke-miterlimit:10;" cx="66.67" cy="265.75" r="5"/>
<path style="opacity:0.65;" d="M145.02,215.56l-1.54-0.7c-0.41-0.19-0.62-0.53-0.62-1.02l0.01-0.43c0.03-0.74-0.52-1.37-1.66-1.88
  c-1.13-0.51-2.01-1.13-2.62-1.84c-0.62-0.72-1.01-1.5-1.18-2.34c-0.34-1.64-0.08-3.4,0.77-5.28c0.06-0.13,0.15-0.22,0.29-0.27
  c0.13-0.05,0.27-0.05,0.39,0.01l3.14,1.42c0.13,0.06,0.22,0.15,0.26,0.27c0.05,0.12,0.05,0.24,0.02,0.35
  c-0.28,0.88-0.34,1.57-0.19,2.06c0.16,0.49,0.67,0.93,1.55,1.33s1.56,0.91,2.07,1.54c0.5,0.63,0.71,1.23,0.62,1.81
  c0.37-0.43,0.97-0.66,1.82-0.69c0.84-0.03,1.69,0.15,2.53,0.53c0.84,0.38,1.49,0.47,1.97,0.26c0.47-0.21,0.95-0.71,1.42-1.5
  c0.06-0.09,0.15-0.16,0.28-0.21c0.12-0.05,0.25-0.04,0.38,0.02l3.14,1.42c0.13,0.06,0.22,0.15,0.27,0.29
  c0.05,0.13,0.05,0.27-0.01,0.39c-0.85,1.88-2,3.23-3.46,4.06c-0.75,0.43-1.59,0.66-2.54,0.66c-0.95,0.01-1.99-0.24-3.12-0.75
  s-1.97-0.51-2.51,0l-0.31,0.3C145.83,215.68,145.43,215.75,145.02,215.56z"/>
<path style="opacity:0.75;fill:#2E184A;" d="M120.61,393.06V400h5v-1.94h5V400h5v-6.94H120.61z"/>
<circle style="opacity:0.75;fill:none;stroke:#EC2952;stroke-width:5;stroke-miterlimit:10;" cx="283.09" cy="360.51" r="5"/>
<path style="opacity:0.65;" d="M400,270.47c-0.33-0.01-0.62-0.12-0.85-0.33l-0.32-0.28c-0.39-0.31-0.78-0.36-1.19-0.16l-1.5,0.76
  c-0.4,0.21-0.59,0.56-0.57,1.05l0.04,0.43c0.06,0.74-0.47,1.4-1.57,1.96c-1.11,0.56-1.96,1.21-2.54,1.96
  c-0.59,0.74-0.94,1.54-1.07,2.39c-0.26,1.66,0.08,3.41,1.01,5.24c0.06,0.13,0.16,0.21,0.3,0.26c0.14,0.04,0.27,0.03,0.39-0.03
  l3.07-1.56c0.13-0.07,0.21-0.16,0.25-0.29c0.04-0.12,0.04-0.24,0.01-0.34c-0.32-0.87-0.42-1.56-0.28-2.05
  c0.13-0.5,0.61-0.96,1.43-1.37c0.82-0.42,1.48-0.97,1.99-1.64c0.5-0.68,0.7-1.3,0.59-1.86c0.21,0.23,0.48,0.4,0.81,0.51V270.47z"/>
<circle style="opacity:0.75;fill:none;stroke:#EC2952;stroke-width:5;stroke-miterlimit:10;" cx="287.29" cy="229.24" r="5"/>
<rect x="359.11" y="331.56" style="opacity:0.75;fill:none;stroke:#2E184A;stroke-width:5;stroke-miterlimit:10;" width="10" height="10"/>
<circle style="opacity:0.75;fill:none;stroke:#EC2952;stroke-width:5;stroke-miterlimit:10;" cx="39.17" cy="357.56" r="5"/>
<path style="opacity:0.65;" d="M10.97,273.98c-0.05,0.13-0.13,0.23-0.26,0.3l-3.07,1.56c-0.12,0.06-0.25,0.07-0.37,0.03
  c-0.13-0.04-0.22-0.11-0.29-0.2c-0.51-0.77-1.01-1.25-1.49-1.43c-0.48-0.19-1.15-0.06-2,0.37c-0.86,0.44-1.69,0.65-2.5,0.65
  c-0.37,0-0.7-0.05-0.99-0.14v-4.65c0.46,0.04,1.01-0.12,1.66-0.45c1.1-0.56,2.13-0.86,3.08-0.89c0.94-0.03,1.8,0.15,2.56,0.55
  c1.49,0.76,2.71,2.07,3.64,3.9C11,273.71,11.01,273.84,10.97,273.98z"/>
<polygon style="opacity:0.75;fill:#2E184A;" points="135.61,0 135.61,8.06 120.61,8.06 120.61,0 125.61,0 125.61,3.06 130.61,3.06 
  130.61,0 "/>
</svg>
