<svg id="_3" data-name="3" xmlns="http://www.w3.org/2000/svg" width="1920" height="1080" viewBox="0 0 1920 1080">
  <title>Tesselation-Texture-Export</title>
  <polygon points="1780.12 733.49 2600.24 926.98 1133.26 1273.49 1780.12 733.49" style="fill: #e1e9ee;opacity: 0.028384368009865"/>
  <polygon points="2600.24 926.98 1780.12 733.49 3073.84 -346.51 2600.24 926.98" style="fill: #344a57;opacity: 0.025629105977714"/>
  <polygon points="1133.26 1273.49 139.88 346.51 1780.12 733.49 1133.26 1273.49" style="fill: #344a57;opacity: 0.032190493773669"/>
  <polygon points="139.88 346.51 1133.26 1273.49 -333.73 1620 139.88 346.51" style="fill: #344a57;opacity: 0.004937953855842"/>
  <polygon points="-333.73 1620 -1153.85 1426.51 139.88 346.51 -333.73 1620" style="fill: #e1e9ee;opacity: 0.033167426530272"/>
  <polygon points="2253.73 -540 3073.84 -346.51 1780.12 733.49 2253.73 -540" style="fill: #e1e9ee;opacity: 0.017594643142074"/>
  <polygon points="1780.12 733.49 786.75 -193.49 2253.73 -540 1780.12 733.49" style="fill: #e1e9ee;opacity: 0.005839090533555"/>
  <polygon points="786.75 -193.49 1780.12 733.49 139.88 346.51 786.75 -193.49" style="fill: #344a57;opacity: 0.008830001726747"/>
  <polygon points="139.88 346.51 -680.24 153.02 786.75 -193.49 139.88 346.51" style="fill: #344a57;opacity: 0.026489488296211"/>
  <polygon points="-680.24 153.02 139.88 346.51 -1153.85 1426.51 -680.24 153.02" style="fill: #e1e9ee;opacity: 0.033708959911019"/>
  <polygon points="549.94 443.25 960 540 226.51 713.25 549.94 443.25" style="fill: #e1e9ee;opacity: 0.001900562811643"/>
  <polygon points="1866.74 1100.24 1370.06 636.75 2190.18 830.24 1866.74 1100.24" style="fill: #344a57;opacity: 0.038250841926783"/>
  <polygon points="1370.06 636.75 1866.74 1100.24 1133.26 1273.49 1370.06 636.75" style="fill: #e1e9ee;opacity: 0.036042021214962"/>
  <polygon points="1133.26 1273.49 723.2 1176.74 1370.06 636.75 1133.26 1273.49" style="fill: #344a57;opacity: 0.001439640745521"/>
  <polygon points="399.76 1446.74 -96.92 983.25 723.2 1176.74 399.76 1446.74" style="fill: #344a57;opacity: 0.00667587550357"/>
  <polygon points="-96.92 983.25 399.76 1446.74 -333.73 1620 -96.92 983.25" style="fill: #344a57;opacity: 0.005614724569023"/>
  <polygon points="1693.49 366.75 2190.18 830.24 1370.06 636.75 1693.49 366.75" style="fill: #e1e9ee;opacity: 0.025039616134018"/>
  <polygon points="1370.06 636.75 960 540 1693.49 366.75 1370.06 636.75" style="fill: #e1e9ee;opacity: 0.017099127713591"/>
  <polygon points="960 540 1370.06 636.75 723.2 1176.74 960 540" style="fill: #344a57;opacity: 0.013692931458354"/>
  <polygon points="723.2 1176.74 226.51 713.25 960 540 723.2 1176.74" style="fill: #e1e9ee;opacity: 0.00547710435465"/>
  <polygon points="226.51 713.25 723.2 1176.74 -96.92 983.25 226.51 713.25" style="fill: #e1e9ee;opacity: 0.030230587068945"/>
  <polygon points="-96.92 983.25 -506.98 886.51 226.51 713.25 -96.92 983.25" style="fill: #344a57;opacity: 0.013267699796706"/>
  <polygon points="1693.49 366.75 1196.8 -96.75 2016.92 96.75 1693.49 366.75" style="fill: #344a57;opacity: 0.017186614219099"/>
  <polygon points="1196.8 -96.75 1693.49 366.75 960 540 1196.8 -96.75" style="fill: #344a57;opacity: 0.035364859066904"/>
  <polygon points="960 540 549.94 443.25 1196.8 -96.75 960 540" style="fill: #e1e9ee;opacity: 0.019903335794806"/>
  <polygon points="226.51 713.25 -270.18 249.76 549.94 443.25 226.51 713.25" style="fill: #e1e9ee;opacity: 0.034672452136874"/>
  <polygon points="-270.18 249.76 226.51 713.25 -506.98 886.51 -270.18 249.76" style="fill: #344a57;opacity: 0.029406477790326"/>
  <polygon points="1520.24 -366.75 2016.92 96.75 1196.8 -96.75 1520.24 -366.75" style="fill: #e1e9ee;opacity: 0.036628531459719"/>
  <polygon points="786.75 -193.49 1196.8 -96.75 549.94 443.25 786.75 -193.49" style="fill: #344a57;opacity: 0.036969336140901"/>
  <polygon points="549.94 443.25 53.26 -20.24 786.75 -193.49 549.94 443.25" style="fill: #e1e9ee;opacity: 0.015048311371356"/>
  <polygon points="2190.18 830.24 2600.24 926.98 1866.74 1100.24 2190.18 830.24" style="fill: #344a57;opacity: 0.016160828713328"/>
  <polygon points="2016.92 96.75 2426.98 193.49 1693.49 366.75 2016.92 96.75" style="fill: #344a57;opacity: 0.01128435537219"/>
  <polygon points="2190.18 830.24 1693.49 366.75 2426.98 193.49 2190.18 830.24" style="fill: #e1e9ee;opacity: 0.036655285432935"/>
  <polygon points="2016.92 96.75 1520.24 -366.75 2253.73 -540 2016.92 96.75" style="fill: #e1e9ee;opacity: 0.039806160330772"/>
  <polygon points="53.26 -20.24 549.94 443.25 -270.18 249.76 53.26 -20.24" style="fill: #344a57;opacity: 0.02203366490081"/>
  <polygon points="-270.18 249.76 -680.24 153.02 53.26 -20.24 -270.18 249.76" style="fill: #344a57;opacity: 0.001019934173673"/>
  <polygon points="841.6 858.37 1046.63 906.75 679.88 993.37 841.6 858.37" style="fill: #e1e9ee;opacity: 0.034278530422598"/>
  <polygon points="108.11 1031.63 313.14 1080 -53.61 1166.63 108.11 1031.63" style="fill: #344a57;opacity: 0.012161258906126"/>
  <polygon points="928.23 1225.12 679.88 993.37 1046.63 906.75 928.23 1225.12" style="fill: #344a57;opacity: 0.023417854551226"/>
  <polygon points="679.88 993.37 928.23 1225.12 518.17 1128.37 679.88 993.37" style="fill: #344a57;opacity: 0.016456441823393"/>
  <polygon points="518.17 1128.37 313.14 1080 679.88 993.37 518.17 1128.37" style="fill: #e1e9ee;opacity: 0.0274157467857"/>
  <polygon points="313.14 1080 518.17 1128.37 194.74 1398.37 313.14 1080" style="fill: #e1e9ee;opacity: 0.006025311816484"/>
  <polygon points="194.74 1398.37 -53.61 1166.63 313.14 1080 194.74 1398.37" style="fill: #344a57;opacity: 0.02584197210148"/>
  <polygon points="679.88 993.37 431.54 761.63 841.6 858.37 679.88 993.37" style="fill: #344a57;opacity: 0.010765389446169"/>
  <polygon points="431.54 761.63 679.88 993.37 313.14 1080 431.54 761.63" style="fill: #e1e9ee;opacity: 0.006471753753722"/>
  <polygon points="313.14 1080 108.11 1031.63 431.54 761.63 313.14 1080" style="fill: #e1e9ee;opacity: 0.033019960224628"/>
  <polygon points="-53.61 1166.63 -301.95 934.88 108.11 1031.63 -53.61 1166.63" style="fill: #344a57;opacity: 0.010768906995654"/>
  <polygon points="841.6 858.37 593.25 626.63 960 540 841.6 858.37" style="fill: #344a57;opacity: 0.016845258884132"/>
  <polygon points="593.25 626.63 841.6 858.37 431.54 761.63 593.25 626.63" style="fill: #e1e9ee;opacity: 0.02128023115918"/>
  <polygon points="431.54 761.63 226.51 713.25 593.25 626.63 431.54 761.63" style="fill: #344a57;opacity: 0.011410797890276"/>
  <polygon points="226.51 713.25 431.54 761.63 108.11 1031.63 226.51 713.25" style="fill: #e1e9ee;opacity: 0.029269435983151"/>
  <polygon points="108.11 1031.63 -140.24 799.88 226.51 713.25 108.11 1031.63" style="fill: #344a57;opacity: 0.015640463456512"/>
  <polygon points="-140.24 799.88 108.11 1031.63 -301.95 934.88 -140.24 799.88" style="fill: #e1e9ee;opacity: 0.007324069757015"/>
  <polygon points="1661.72 1051.86 1866.74 1100.24 1500 1186.86 1661.72 1051.86" style="fill: #e1e9ee;opacity: 0.015115089677274"/>
  <polygon points="1575.09 685.12 1780.12 733.49 1413.37 820.12 1575.09 685.12" style="fill: #e1e9ee;opacity: 0.034336975309998"/>
  <polygon points="1985.15 781.86 2233.49 1013.61 1866.74 1100.24 1985.15 781.86" style="fill: #344a57;opacity: 0.02261771639809"/>
  <polygon points="1866.74 1100.24 1661.72 1051.86 1985.15 781.86 1866.74 1100.24" style="fill: #344a57;opacity: 0.020940240230411"/>
  <polygon points="1500 1186.86 1251.66 955.12 1661.72 1051.86 1500 1186.86" style="fill: #e1e9ee;opacity: 0.00055101685226"/>
  <polygon points="1251.66 955.12 1500 1186.86 1133.26 1273.49 1251.66 955.12" style="fill: #e1e9ee;opacity: 0.029899479430169"/>
  <polygon points="1133.26 1273.49 928.23 1225.12 1251.66 955.12 1133.26 1273.49" style="fill: #344a57;opacity: 0.005420949570835"/>
  <polygon points="1985.15 781.86 1780.12 733.49 2146.86 646.86 1985.15 781.86" style="fill: #344a57;opacity: 0.014471809212118"/>
  <polygon points="1780.12 733.49 1985.15 781.86 1661.72 1051.86 1780.12 733.49" style="fill: #344a57;opacity: 0.025773455798626"/>
  <polygon points="1661.72 1051.86 1413.37 820.12 1780.12 733.49 1661.72 1051.86" style="fill: #e1e9ee;opacity: 0.035136893745512"/>
  <polygon points="1413.37 820.12 1661.72 1051.86 1251.66 955.12 1413.37 820.12" style="fill: #e1e9ee;opacity: 0.000033030100167"/>
  <polygon points="1251.66 955.12 1046.63 906.75 1413.37 820.12 1251.66 955.12" style="fill: #344a57;opacity: 0.032334148436785"/>
  <polygon points="1046.63 906.75 1251.66 955.12 928.23 1225.12 1046.63 906.75" style="fill: #344a57;opacity: 0.010242894869298"/>
  <polygon points="2146.86 646.86 1898.52 415.12 2308.58 511.86 2146.86 646.86" style="fill: #e1e9ee;opacity: 0.007642663344741"/>
  <polygon points="1898.52 415.12 2146.86 646.86 1780.12 733.49 1898.52 415.12" style="fill: #344a57;opacity: 0.01414456134662"/>
  <polygon points="1780.12 733.49 1575.09 685.12 1898.52 415.12 1780.12 733.49" style="fill: #344a57;opacity: 0.011998223625124"/>
  <polygon points="1413.37 820.12 1165.03 588.37 1575.09 685.12 1413.37 820.12" style="fill: #344a57;opacity: 0.005807818062603"/>
  <polygon points="1165.03 588.37 1413.37 820.12 1046.63 906.75 1165.03 588.37" style="fill: #344a57;opacity: 0.030718498695642"/>
  <polygon points="1046.63 906.75 841.6 858.37 1165.03 588.37 1046.63 906.75" style="fill: #e1e9ee;opacity: 0.028520897142589"/>
  <polygon points="2060.24 280.12 2308.58 511.86 1898.52 415.12 2060.24 280.12" style="fill: #344a57;opacity: 0.034815593715757"/>
  <polygon points="1898.52 415.12 1693.49 366.75 2060.24 280.12 1898.52 415.12" style="fill: #344a57;opacity: 0.017837497200817"/>
  <polygon points="1693.49 366.75 1898.52 415.12 1575.09 685.12 1693.49 366.75" style="fill: #e1e9ee;opacity: 0.038846780341119"/>
  <polygon points="1575.09 685.12 1326.74 453.37 1693.49 366.75 1575.09 685.12" style="fill: #e1e9ee;opacity: 0.035708862170577"/>
  <polygon points="1326.74 453.37 1575.09 685.12 1165.03 588.37 1326.74 453.37" style="fill: #e1e9ee;opacity: 0.037098572533578"/>
  <polygon points="1165.03 588.37 960 540 1326.74 453.37 1165.03 588.37" style="fill: #344a57;opacity: 0.032667168341577"/>
  <polygon points="960 540 1165.03 588.37 841.6 858.37 960 540" style="fill: #344a57;opacity: 0.030979512520134"/>
  <polygon points="754.97 491.63 960 540 593.25 626.63 754.97 491.63" style="fill: #e1e9ee;opacity: 0.026112392414361"/>
  <polygon points="21.48 664.88 226.51 713.25 -140.24 799.88 21.48 664.88" style="fill: #e1e9ee;opacity: 0.033787476178259"/>
  <polygon points="668.34 124.88 873.37 173.25 506.63 259.88 668.34 124.88" style="fill: #344a57;opacity: 0.006330325901508"/>
  <polygon points="-65.15 298.14 139.88 346.51 -226.86 433.14 -65.15 298.14" style="fill: #344a57;opacity: 0.018207076229155"/>
  <polygon points="593.25 626.63 344.91 394.88 754.97 491.63 593.25 626.63" style="fill: #e1e9ee;opacity: 0.01696306342259"/>
  <polygon points="344.91 394.88 593.25 626.63 226.51 713.25 344.91 394.88" style="fill: #344a57;opacity: 0.000641218721867"/>
  <polygon points="226.51 713.25 21.48 664.88 344.91 394.88 226.51 713.25" style="fill: #344a57;opacity: 0.007161339987069"/>
  <polygon points="-140.24 799.88 -388.58 568.14 21.48 664.88 -140.24 799.88" style="fill: #344a57;opacity: 0.033672110494226"/>
  <polygon points="754.97 491.63 506.63 259.88 873.37 173.25 754.97 491.63" style="fill: #344a57;opacity: 0.028800875302404"/>
  <polygon points="506.63 259.88 754.97 491.63 344.91 394.88 506.63 259.88" style="fill: #e1e9ee;opacity: 0.001941381618381"/>
  <polygon points="344.91 394.88 139.88 346.51 506.63 259.88 344.91 394.88" style="fill: #e1e9ee;opacity: 0.013689649626613"/>
  <polygon points="139.88 346.51 344.91 394.88 21.48 664.88 139.88 346.51" style="fill: #e1e9ee;opacity: 0.006414808686823"/>
  <polygon points="21.48 664.88 -226.86 433.14 139.88 346.51 21.48 664.88" style="fill: #e1e9ee;opacity: 0.01204536292702"/>
  <polygon points="-226.86 433.14 21.48 664.88 -388.58 568.14 -226.86 433.14" style="fill: #344a57;opacity: 0.036913907602429"/>
  <polygon points="506.63 259.88 258.28 28.14 668.34 124.88 506.63 259.88" style="fill: #344a57;opacity: 0.036508850697428"/>
  <polygon points="258.28 28.14 506.63 259.88 139.88 346.51 258.28 28.14" style="fill: #344a57;opacity: 0.007134914547205"/>
  <polygon points="139.88 346.51 -65.15 298.14 258.28 28.14 139.88 346.51" style="fill: #344a57;opacity: 0.029742793757468"/>
  <polygon points="668.34 124.88 420 -106.86 786.75 -193.49 668.34 124.88" style="fill: #344a57;opacity: 0.01906619489193"/>
  <polygon points="420 -106.86 668.34 124.88 258.28 28.14 420 -106.86" style="fill: #e1e9ee;opacity: 0.039384724572301"/>
  <polygon points="258.28 28.14 53.26 -20.24 420 -106.86 258.28 28.14" style="fill: #e1e9ee;opacity: 0.037579543311149"/>
  <polygon points="53.26 -20.24 258.28 28.14 -65.15 298.14 53.26 -20.24" style="fill: #e1e9ee;opacity: 0.01424154099077"/>
  <polygon points="-65.15 298.14 -313.49 66.39 53.26 -20.24 -65.15 298.14" style="fill: #344a57;opacity: 0.026599288471043"/>
  <polygon points="1488.46 318.37 1693.49 366.75 1326.74 453.37 1488.46 318.37" style="fill: #e1e9ee;opacity: 0.001793971285224"/>
  <polygon points="1401.83 -48.37 1606.86 0 1240.12 86.63 1401.83 -48.37" style="fill: #e1e9ee;opacity: 0.014022612366825"/>
  <polygon points="2060.24 280.12 1811.89 48.37 2221.95 145.12 2060.24 280.12" style="fill: #344a57;opacity: 0.037887429185212"/>
  <polygon points="1811.89 48.37 2060.24 280.12 1693.49 366.75 1811.89 48.37" style="fill: #e1e9ee;opacity: 0.037986427508295"/>
  <polygon points="1693.49 366.75 1488.46 318.37 1811.89 48.37 1693.49 366.75" style="fill: #e1e9ee;opacity: 0.020493722036481"/>
  <polygon points="1326.74 453.37 1078.4 221.63 1488.46 318.37 1326.74 453.37" style="fill: #e1e9ee;opacity: 0.008580977786332"/>
  <polygon points="1078.4 221.63 1326.74 453.37 960 540 1078.4 221.63" style="fill: #344a57;opacity: 0.03295582678169"/>
  <polygon points="960 540 754.97 491.63 1078.4 221.63 960 540" style="fill: #344a57;opacity: 0.038171771019697"/>
  <polygon points="1973.61 -86.63 2221.95 145.12 1811.89 48.37 1973.61 -86.63" style="fill: #e1e9ee;opacity: 0.033967913109809"/>
  <polygon points="1811.89 48.37 1606.86 0 1973.61 -86.63 1811.89 48.37" style="fill: #344a57;opacity: 0.004942819532007"/>
  <polygon points="1606.86 0 1811.89 48.37 1488.46 318.37 1606.86 0" style="fill: #e1e9ee;opacity: 0.01359700974077"/>
  <polygon points="1488.46 318.37 1240.12 86.63 1606.86 0 1488.46 318.37" style="fill: #344a57;opacity: 0.009770547803491"/>
  <polygon points="1240.12 86.63 1488.46 318.37 1078.4 221.63 1240.12 86.63" style="fill: #e1e9ee;opacity: 0.026779899466783"/>
  <polygon points="1078.4 221.63 873.37 173.25 1240.12 86.63 1078.4 221.63" style="fill: #344a57;opacity: 0.039256665650755"/>
  <polygon points="873.37 173.25 1078.4 221.63 754.97 491.63 873.37 173.25" style="fill: #344a57;opacity: 0.038990852404386"/>
  <polygon points="1240.12 86.63 991.77 -145.12 1401.83 -48.37 1240.12 86.63" style="fill: #e1e9ee;opacity: 0.011551835499704"/>
  <polygon points="991.77 -145.12 1240.12 86.63 873.37 173.25 991.77 -145.12" style="fill: #e1e9ee;opacity: 0.02828890055418"/>
  <polygon points="873.37 173.25 668.34 124.88 991.77 -145.12 873.37 173.25" style="fill: #344a57;opacity: 0.003950038012117"/>
  <polygon points="786.75 -193.49 991.77 -145.12 668.34 124.88 786.75 -193.49" style="fill: #e1e9ee;opacity: 0.037559626903385"/>
</svg>
