<?xml version="1.0" encoding="utf-8"?>
<!-- Generator: Adobe Illustrator 19.0.1, SVG Export Plug-In . SVG Version: 6.00 Build 0)  -->
<svg version="1.1" id="_3" xmlns="http://www.w3.org/2000/svg" xmlns:xlink="http://www.w3.org/1999/xlink" x="0px" y="0px"
	 viewBox="448 -50 1920 1080" style="enable-background:new 448 -50 1920 1080;" xml:space="preserve">
<style type="text/css">
	[class^=st]{ fill:#352849; }
	.st0{opacity:3.219049e-02;}
	.st1{opacity:2.000000e-02;}
	.st2{opacity:8.830002e-03;}
	.st3{opacity:2.648949e-02;}
	.st4{opacity:3.825084e-02;}
	.st5{opacity:1.000000e-02;}
	.st6{opacity:5.614724e-03;}
	.st7{opacity:2.503962e-02;}
	.st8{opacity:1.369293e-02;}
	.st9{opacity:1.326770e-02;}
	.st10{opacity:1.718661e-02;}
	.st11{opacity:3.536486e-02;}
	.st12{opacity:2.940648e-02;}
	.st13{opacity:2.203367e-02;}
	.st14{opacity:2.341785e-02;}
	.st15{opacity:1.645644e-02;}
	.st16{opacity:1.076539e-02;}
	.st17{opacity:1.684526e-02;}
	.st18{opacity:1.141080e-02;}
	.st19{opacity:2.577346e-02;}
	.st20{opacity:3.233415e-02;}
	.st21{opacity:3.266717e-02;}
	.st22{opacity:1.820708e-02;}
	.st23{opacity:7.000000e-02;}
	.st24{opacity:4.000000e-02;}
	.st25{opacity:2.880087e-02;}
	.st26{opacity:3.000000e-02;}
	.st27{opacity:7.134914e-03;}
	.st28{opacity:5.000000e-02;}
	.st29{opacity:2.974279e-02;}
	.st30{opacity:6.000000e-02;}
	.st31{opacity:3.788743e-02;}
	.st32{opacity:3.925667e-02;}
	.st33{opacity:1.000000e-02;}
	.st35{opacity:2.000000e-02;}
</style>
<polygon class="st0" points="1614,539.4 1656.9,549.5 1614.1,539.4 "/>
<polygon class="st0" points="1266.6,-50 1116.9,75.1 1055.1,126.7 994.9,177.1 955.1,210.3 874.1,277.9 832.7,239.2 766.2,177.1 
	749.9,161.9 830.8,94.3 992.6,-41 1003.4,-50 "/>
<polygon class="st1" points="588,297.1 749.9,161.9 832.7,239.3 874.1,277.9 955.1,210.3 1116.9,75.1 1266.6,-50 1443,-50 
	1484,-11.7 1566.8,65.7 1608.3,104.4 1856.8,336.5 1898.2,375.2 1775.9,404.1 1775.9,404.1 1408.8,490.9 1203.6,442.5 1203.6,442.5 
	998.4,394 793.2,345.5 "/>
<polygon class="st1" points="1654.3,1031.8 1700.7,906.7 1700.7,906.7 1740.2,800.4 1985,742.6 2221.3,686.7 2229.7,684.7 
	2226,687.8 2067.8,820 1986.9,887.6 1906,955.2 1825,1022.8 1814.2,1031.8 "/>
<polygon class="st1" points="1250.8,916.1 1495.5,858.3 1333.7,993.5 1250.8,916.1 "/>
<polygon class="st2" points="1041.8,577.7 1203.6,442.5 1408.8,490.9 1041.8,577.7 1290.3,809.8 1209.4,877.4 919.4,606.6 
	1041.8,577.7 1041.8,577.7 "/>
<polygon class="st2" points="1203.6,442.5 998.4,394 1203.6,442.5 "/>
<polygon class="st3" points="2369.7,717.8 2231,685 2369.7,717.8 "/>
<polygon class="st3" points="1814.2,1031.8 1825,1022.8 1906,955.2 1986.9,887.6 2067.8,820 2226,687.8 2229.7,684.7 2229.7,684.7 
	2231,685 2229.7,688.7 2228.3,688.4 2150.7,897.3 2192.1,936 2111.2,1003.6 2077.4,1031.8 "/>
<polygon class="st4" points="699,114.4 667,84.5 667,84.5 "/>
<polygon class="st4" points="749.9,161.9 588,297.1 588,297.1 632.6,177.1 661.2,100.2 701.2,116.4 701.2,116.4 "/>
<polygon class="st5" points="588,297.1 749.9,161.9 832.7,239.3 874.1,277.9 998.4,394 793.2,345.5 "/>
<polygon class="st6" points="2362.9,-50 2369.7,-50 2369.7,-43.7 "/>
<polygon class="st7" points="448,414.1 448,264 588,297.1 "/>
<polygon class="st8" points="998.4,394 1079.3,326.4 1322.1,123.6 1322.1,123.5 1322.1,123.5 1484,-11.7 1529.8,-50 1609.8,-50 
	1606.3,-40.6 1566.8,65.7 1527.3,172 1408.8,490.9 1203.6,442.5 1203.6,442.5 "/>
<polygon class="st9" points="2143,317.4 2369.7,128 2369.7,263.8 "/>
<polygon class="st10" points="448,786.8 512.2,733.2 448,718 448,610.9 469.5,616 674.7,664.5 1047.5,1012.7 1068.1,1031.8 
	761.4,1031.8 556.2,983.4 556.2,983.4 448,882.3 "/>
<polygon class="st10" points="448,957.8 448,882.3 556.2,983.4 "/>
<polygon class="st11" points="1041.8,577.7 1041.8,577.7 1041.8,577.7 1408.8,490.9 "/>
<polygon class="st11" points="674.7,664.5 919.4,606.6 1041.8,577.7 1041.8,577.7 1290.3,809.8 1128.5,945 1250.8,916.1 
	1211.3,1022.4 1207.8,1031.8 1068.1,1031.8 1047.5,1012.7 "/>
<polygon class="st12" points="2143,317.4 2369.7,263.8 2369.7,347.9 2348.2,365.8 "/>
<polygon class="st5" points="1862.6,771.5 1943.5,703.9 1985,742.6 "/>
<polygon class="st13" points="1819.2,587.8 2024.5,636.3 2028.2,637.1 2229.7,684.7 2221.3,686.7 1985,742.6 1943.5,703.9 "/>
<polygon class="st13" points="1985,742.6 2221.3,686.7 2229.7,684.7 2229.7,684.7 2231,685 2229.7,688.7 2228.3,688.4 2150.7,897.3 
	2067.8,820 "/>
<polygon class="st14" points="1322.1,123.5 1386.6,-50 1596.3,-50 1606.3,-40.6 1689.2,36.8 1566.8,65.7 1322.1,123.5 "/>
<polygon class="st15" points="1596.3,-50 1793.1,-50 1770.1,-30.8 1689.2,36.8 1606.3,-40.6 "/>
<polygon class="st16" points="1689.2,36.8 1937.8,268.9 1527.3,172 "/>
<polygon class="st17" points="1527.3,172 1775.9,404.1 1408.8,490.9 "/>
<polygon class="st18" points="1775.9,404.1 1856.8,336.5 1937.8,268.9 2143,317.4 1898.3,375.2 1898.2,375.2 "/>
<polygon class="st1" points="706.5,-21.8 667,84.5 625.6,45.8 523,-50 587.2,-50 "/>
<polygon class="st1" points="448,14 661.2,100.2 632.6,177.1 588,297.1 448,264 "/>
<polygon class="st1" points="667,84.5 667,84.5 523,-49.5 448,-50 523,-50 625.6,45.8 "/>
<polygon class="st19" points="448,264 448,264 588,297.1 "/>
<polygon class="st20" points="955.1,210.3 1116.9,75.1 1322.1,123.5 1077.4,181.4 1077.4,181.4 "/>
<polygon class="st1" points="1203.6,442.5 955.1,210.3 1322.1,123.5 "/>
<polygon class="st5" points="448,610.9 448,414.1 588,297.1 588,297.1 793.2,345.5 998.4,394 1203.6,442.5 1041.8,577.7 
	1041.8,577.7 1041.8,577.7 919.4,606.6 674.7,664.5 469.5,616 "/>
<polygon class="st21" points="1041.8,577.7 1041.8,577.7 1041.8,577.7 1203.6,442.5 1408.8,490.9 "/>
<polygon class="st1" points="1408.8,490.9 1203.6,442.5 1527.3,172 "/>
<polygon class="st1" points="2143,317.4 2261.5,-1.5 2261.5,-1.5 2261.5,-1.5 2261.5,-1.5 2369.7,99.5 2369.7,347.9 2348.2,365.8 
	"/>
<polygon class="st22" points="2229.7,684.7 2369.7,651.6 2369.7,717.8 "/>
<polygon class="st1" points="2143,317.4 2348.2,365.8 2369.7,385.9 2369.7,529.1 2309.8,473.2 2308.7,472.1 2269.5,435.5 
	2267.2,433.4 "/>
<polygon class="st23" points="2348.2,365.8 2369.7,347.9 2369.7,385.9 "/>
<polygon class="st24" points="1495.5,858.3 1738.3,655.4 1779.7,694.1 1740.2,800.4 "/>
<polygon class="st25" points="1740.2,800.4 1779.7,694.1 1862.6,771.5 "/>
<polygon class="st1" points="1495.5,858.3 1614,539.4 1614.1,539.4 1738.3,655.4 "/>
<polygon class="st1" points="1738.3,655.4 1819.2,587.8 1779.7,694.1 "/>
<polygon class="st24" points="1408.8,490.9 1775.9,404.1 1775.9,404.1 1898.2,375.2 1898.3,375.2 1981.1,452.6 2064,530 
	2105.4,568.7 2107.6,570.7 2229.7,684.7 2028.2,637.1 2024.5,636.3 1819.2,587.8 1656.9,549.5 1614,539.4 "/>
<polygon class="st26" points="1862.6,771.5 2111.2,1003.6 1700.7,906.7 "/>
<polygon class="st27" points="1862.6,771.5 1985,742.6 2221.3,686.7 2229.7,684.7 2229.7,684.7 2228.3,688.4 2150.7,897.3 
	2111.2,1003.6 1986.9,887.6 "/>
<polygon class="st28" points="2150.7,897.3 2228.3,688.4 2229.7,688.7 2231,685 2369.7,717.8 2369.7,787.7 2192.1,936 "/>
<polygon class="st29" points="2369.7,717.8 2231,685 2369.7,717.8 "/>
<polygon class="st29" points="2229.7,688.7 2228.3,688.4 2229.7,684.7 2231,685 "/>
<polygon class="st29" points="2111.2,1003.6 2150.7,897.3 2192.1,936 "/>
<polygon class="st1" points="2192.1,936 2369.7,787.7 2369.7,908.6 2323.9,1031.8 2294.7,1031.8 "/>
<polygon class="st30" points="2323.9,1031.8 2369.7,908.6 2369.7,1007.6 2340.6,1031.8 "/>
<polygon class="st31" points="448,957.8 448,882.3 556.2,983.4 556.2,983.4 "/>
<polygon class="st30" points="1041.8,577.7 1408.8,490.9 1290.3,809.8 "/>
<polygon class="st32" points="1250.8,916.1 1290.3,809.8 1408.8,490.9 1614,539.4 1495.5,858.3 "/>
<polygon class="st30" points="1128.5,945 1290.3,809.8 1250.8,916.1 1250.8,916.1 1250.8,916.1 "/>
<polygon class="st26" points="1287.8,1031.8 1333.7,993.5 1495.5,858.3 1740.2,800.4 1700.7,906.7 1700.7,906.7 1654.3,1031.8 "/>
<polygon class="st30" points="447,787.7 447,717.8 448,718 512.2,733.2 448,786.8 "/>
<polygon class="st5" points="2056.2,-50 1937.8,268.9 1775.9,404.1 1527.3,172 1322.1,123.5 1689.2,36.8 1770.1,-30.8 1749.6,-50 
	"/>
<polygon class="st5" points="2369.7,24 2369.7,128 2143,317.4 1937.8,268.9 2018.7,201.3 2261.4,-1.5 2261.5,-1.5 "/>
<polygon class="st1" points="2261.4,-1.5 2018.7,201.3 1937.8,268.9 2056.2,-50 "/>
<polygon class="st33" points="1055.1,-50 1055.1,-50 1003.4,-50 992.6,-41 830.8,94.3 749.9,161.9 701.2,116.4 701.2,116.4 
	699,114.4 667,84.5 706.5,-21.8 587.2,-50 "/>
<polygon class="st35" points="701.2,116.4 661.2,100.2 667,84.5 699,114.4 "/>
</svg>
